<svg xmlns="http://www.w3.org/2000/svg" xmlns:xlink="http://www.w3.org/1999/xlink" viewBox="0,0,256,256" width="100px" height="100px"><defs><clipPath id="clip-1"><path d="M-384,640v-1024h1024v1024zM80.98909,-177.80364v-34.90909l-13.03273,-2.32727l7.44727,-10.70545l-24.66909,-24.66909l-10.24,7.91273l-2.32727,-12.56727h-34.90909l-2.32727,12.56727l-10.70545,-7.44727l-25.13455,24.66909l7.44727,10.70545l-12.56727,1.86182v35.37455l12.56727,1.86182l-7.44727,11.17091l24.66909,24.66909l11.17091,-7.44727l2.32727,13.03273h34.90909l2.32727,-13.03273l11.17091,7.44727l25.13455,-25.13455l-7.91273,-10.70545z" id="overlayBgMask" fill="none"></path></clipPath></defs><g transform="translate(96,96) scale(0.25,0.25)"><g clip-path="url(#clip-1)" fill="none" fill-rule="nonzero" stroke="none" stroke-width="1" stroke-linecap="butt" stroke-linejoin="miter" stroke-miterlimit="10" stroke-dasharray="" stroke-dashoffset="0" font-family="none" font-weight="none" font-size="none" text-anchor="none" style="mix-blend-mode: normal"><g transform="translate(-284.672,-145.408) scale(5.12,5.12)" fill="#64ffda"><path d="M6,4c-1.09306,0 -2,0.90694 -2,2v38c0,1.09306 0.90694,2 2,2h38c1.09306,0 2,-0.90694 2,-2v-38c0,-1.09306 -0.90694,-2 -2,-2zM6,6h38v38h-38zM17,14l0.03516,22h2.46484v-22zM31.5,14v7.86719v0.00781c-0.607,-1.311 -1.67687,-1.875 -2.79687,-1.875c-2.4,0 -4.70312,2.372 -4.70312,7.875c0,5.121 1.85647,8.4375 4.48047,8.4375c1.631,0 2.53953,-0.8495 3.01953,-1.9375v1.625h2.5c-0.032,-0.896 0,-2.319 0,-3.375v-18.625zM29.24609,22.11133c1.184,0 2.11223,1.41367 2.24023,3.01367c0.032,0.351 0,0.7435 0,1.0625v4.5625c0,0 -0.029,0.587 -0.125,0.875c-0.544,2.239 -1.53669,2.63867 -2.30469,2.63867c-1.792,0 -2.59375,-3.12467 -2.59375,-6.38867c0,-3.103 0.7352,-5.76367 2.7832,-5.76367z"></path></g></g><g fill="#64ffda" fill-rule="nonzero" stroke="none" stroke-width="1" stroke-linecap="butt" stroke-linejoin="miter" stroke-miterlimit="10" stroke-dasharray="" stroke-dashoffset="0" font-family="none" font-weight="none" font-size="none" text-anchor="none" style="mix-blend-mode: normal"><g transform="translate(-30.72,-245.76) scale(4.65455,4.65455)" id="overlay"><g id="Слой_2" font-family="Inter, apple-system, BlinkMacSystemFont, &quot;Helvetica Neue&quot;, &quot;Segoe UI&quot;, &quot;Fira Sans&quot;, Roboto, Oxygen, Ubuntu, &quot;Droid Sans&quot;, Arial, sans-serif" font-weight="400" font-size="16" text-anchor="start" visibility="hidden"></g><g id="Android_x5F_4" font-family="Inter, apple-system, BlinkMacSystemFont, &quot;Helvetica Neue&quot;, &quot;Segoe UI&quot;, &quot;Fira Sans&quot;, Roboto, Oxygen, Ubuntu, &quot;Droid Sans&quot;, Arial, sans-serif" font-weight="400" font-size="16" text-anchor="start" visibility="hidden"></g><g id="Android_x5F_5" font-family="Inter, apple-system, BlinkMacSystemFont, &quot;Helvetica Neue&quot;, &quot;Segoe UI&quot;, &quot;Fira Sans&quot;, Roboto, Oxygen, Ubuntu, &quot;Droid Sans&quot;, Arial, sans-serif" font-weight="400" font-size="16" text-anchor="start" visibility="hidden"></g><g id="Windows_x5F_8" font-family="Inter, apple-system, BlinkMacSystemFont, &quot;Helvetica Neue&quot;, &quot;Segoe UI&quot;, &quot;Fira Sans&quot;, Roboto, Oxygen, Ubuntu, &quot;Droid Sans&quot;, Arial, sans-serif" font-weight="400" font-size="16" text-anchor="start" visibility="hidden"></g><g id="Windows_x5F_10" font-family="Inter, apple-system, BlinkMacSystemFont, &quot;Helvetica Neue&quot;, &quot;Segoe UI&quot;, &quot;Fira Sans&quot;, Roboto, Oxygen, Ubuntu, &quot;Droid Sans&quot;, Arial, sans-serif" font-weight="400" font-size="16" text-anchor="start" visibility="hidden"></g><g id="Color" font-family="Inter, apple-system, BlinkMacSystemFont, &quot;Helvetica Neue&quot;, &quot;Segoe UI&quot;, &quot;Fira Sans&quot;, Roboto, Oxygen, Ubuntu, &quot;Droid Sans&quot;, Arial, sans-serif" font-weight="400" font-size="16" text-anchor="start" visibility="hidden"></g><g id="IOS" font-family="Inter, apple-system, BlinkMacSystemFont, &quot;Helvetica Neue&quot;, &quot;Segoe UI&quot;, &quot;Fira Sans&quot;, Roboto, Oxygen, Ubuntu, &quot;Droid Sans&quot;, Arial, sans-serif" font-weight="400" font-size="16" text-anchor="start" visibility="hidden"></g><g id="IOS_copy"><path d="M13.1,22h-4.1l-0.5,-3.2c-0.4,-0.1 -0.7,-0.2 -1.1,-0.4l-2.7,1.8l-3,-3l1.8,-2.7c-0.2,-0.3 -0.3,-0.7 -0.4,-1l-3.1,-0.5v-4.2l3.1,-0.5c0.1,-0.4 0.3,-0.7 0.4,-1.1l-1.8,-2.5l3,-3l2.7,1.9c0.3,-0.2 0.7,-0.3 1,-0.4l0.6,-3.2h4.2l0.5,3.2c0.3,0.1 0.7,0.2 1,0.4l2.6,-1.9l2.9,2.9l-1.8,2.7c0.2,0.3 0.3,0.7 0.4,1l3.2,0.5v4.2l-3.1,0.6c-0.1,0.3 -0.2,0.7 -0.4,1.1l1.9,2.6l-3,3l-2.7,-1.8c-0.4,0.2 -0.7,0.3 -1,0.4zM10.6,20h0.8l0.5,-2.8l0.6,-0.2c0.6,-0.2 1.2,-0.4 1.8,-0.7l0.5,-0.3l2.3,1.6l0.6,-0.6l-1.7,-2.3l0.4,-0.6c0.3,-0.5 0.5,-1.1 0.7,-1.7l0.2,-0.6l2.7,-0.6v-0.8l-2.8,-0.4l-0.2,-0.6c-0.2,-0.6 -0.4,-1.2 -0.7,-1.8l-0.3,-0.5l1.6,-2.3l-0.5,-0.5l-2.3,1.7l-0.6,-0.4c-0.5,-0.3 -1.1,-0.5 -1.7,-0.7l-0.6,-0.2l-0.4,-2.7h-0.8l-0.5,2.8l-0.6,0.1c-0.6,0.2 -1.2,0.5 -1.9,0.8l-0.5,0.2l-2.3,-1.6l-0.6,0.6l1.6,2.3l-0.4,0.5c-0.3,0.5 -0.5,1.1 -0.6,1.6l-0.1,0.7l-2.8,0.5v0.8l2.7,0.5l0.2,0.6c0.2,0.5 0.4,1.2 0.7,1.8l0.3,0.5l-1.6,2.3l0.6,0.6l2.4,-1.6l0.6,0.4c0.5,0.3 1.1,0.5 1.7,0.7l0.6,0.2zM11,14.9c-2.2,0 -4,-1.8 -4,-4c0,-2.2 1.8,-4 4,-4c2.2,0 4,1.8 4,4c0,2.3 -1.8,4 -4,4zM11,9c-1.1,0 -2,0.9 -2,2c0,1.1 0.9,2 2,2c1.1,0 2,-0.9 2,-2c0,-1.2 -0.9,-2 -2,-2z"></path></g></g></g><g fill="#64ffda" fill-rule="nonzero" stroke="none" stroke-width="1" stroke-linecap="butt" stroke-linejoin="miter" stroke-miterlimit="10" stroke-dasharray="" stroke-dashoffset="0" font-family="none" font-weight="none" font-size="none" text-anchor="none" style="mix-blend-mode: normal"><g><path d="M-251.69,226.315l-78.25,32.25l78.25,31.63v24.5l-102.25,-47.38v-18.25l102.25,-47.25zM-157.56,272.065v-1.75c0,-20.74667 4.91667,-37.43333 14.75,-50.06c9.83333,-12.62667 22.70667,-18.94 38.62,-18.94v0c15.83333,0 28.37667,5.41667 37.63,16.25v0v-70.5h23.12v192h-21.25l-1.12,-14.5c-9.25333,11.33333 -22.13,17 -38.63,17v0c-15.66667,0 -28.43667,-6.41667 -38.31,-19.25c-9.87333,-12.83333 -14.81,-29.58333 -14.81,-50.25zM-134.44,272.945v0c0,15.33333 3.16667,27.33333 9.5,36c6.33333,8.66667 15.08333,13 26.25,13v0c14.66667,0 25.37667,-6.58333 32.13,-19.75v0v-62.13c-6.92,-12.74667 -17.54667,-19.12 -31.88,-19.12v0c-11.33333,0 -20.16667,4.37333 -26.5,13.12c-6.33333,8.75333 -9.5,21.71333 -9.5,38.88zM100.19,339.065h-24.25c-1.33333,-2.66667 -2.41667,-7.41667 -3.25,-14.25v0c-10.75333,11.16667 -23.58667,16.75 -38.5,16.75v0c-13.33333,0 -24.27333,-3.77 -32.82,-11.31c-8.54,-7.54 -12.81,-17.10333 -12.81,-28.69v0c0,-14.08 5.35333,-25.01667 16.06,-32.81c10.71333,-7.79333 25.77667,-11.69 45.19,-11.69v0h22.5v-10.62c0,-8.08667 -2.41667,-14.52667 -7.25,-19.32c-4.83333,-4.78667 -11.95667,-7.18 -21.37,-7.18v0c-8.25333,0 -15.17,2.08333 -20.75,6.25c-5.58667,4.16667 -8.38,9.20667 -8.38,15.12v0h-23.25c0,-6.74667 2.39667,-13.26667 7.19,-19.56c4.79333,-6.29333 11.29333,-11.27333 19.5,-14.94c8.20667,-3.66667 17.22667,-5.5 27.06,-5.5v0c15.58667,0 27.79667,3.89667 36.63,11.69c8.83333,7.79333 13.41667,18.52333 13.75,32.19v0v62.25c0,12.41333 1.58333,22.28667 4.75,29.62v0zM37.56,321.445v0c7.25333,0 14.13,-1.87667 20.63,-5.63c6.5,-3.74667 11.20667,-8.62 14.12,-14.62v0v-27.75h-18.12c-28.33333,0 -42.5,8.29 -42.5,24.87v0c0,7.25333 2.41667,12.92 7.25,17c4.83333,4.08667 11.04,6.13 18.62,6.13zM131.69,203.815h21.87l0.75,17c10.33333,-13 23.83333,-19.5 40.5,-19.5v0c28.58667,0 43.00333,16.12667 43.25,48.38v0v89.37h-23.12v-89.5c-0.08667,-9.74667 -2.31667,-16.95333 -6.69,-21.62c-4.37333,-4.66667 -11.18667,-7 -20.44,-7v0c-7.5,0 -14.08333,2 -19.75,6c-5.66667,4 -10.08333,9.25 -13.25,15.75v0v96.37h-23.12zM298.06,203.815v135.25h-23.12v-135.25zM273.06,167.945v0c0,-3.75333 1.14667,-6.92 3.44,-9.5c2.29333,-2.58667 5.69,-3.88 10.19,-3.88c4.5,0 7.91667,1.29333 10.25,3.88c2.33333,2.58 3.5,5.74667 3.5,9.5c0,3.74667 -1.16667,6.87 -3.5,9.37c-2.33333,2.5 -5.75,3.75 -10.25,3.75c-4.5,0 -7.89667,-1.25 -10.19,-3.75c-2.29333,-2.5 -3.44,-5.62333 -3.44,-9.37zM478.94,157.065l-75.88,197.63h-19.87l76,-197.63zM503.19,290.565l82.62,-32.75l-82.62,-32.37v-23.75l106.75,47.25v18.25l-106.75,47.37z"></path></g></g></g></svg>